<?xml version="1.0" standalone="no"?>
<!DOCTYPE svg PUBLIC "-//W3C//DTD SVG 1.1//EN" "http://www.w3.org/Graphics/SVG/1.1/DTD/svg11.dtd" >
<svg xmlns="http://www.w3.org/2000/svg">
<metadata>
This is a custom SVG webfont generated by Font Squirrel.
Copyright   : Digitized data C 2004 Agfa Monotype Corporation Neo SansTM is a trademark of Agfa Monotype Corporation and may be registered in certain jurisdictions  All rights reserved Neo Sans is designed by Sebastian Lester
Foundry     : Digitized data C Agfa Monotype Corporation Neo SansTM is a trademark of Agfa Monotype Corporation and may be registered in certain jurisdictions
</metadata>
<defs>
<font id="NeoSansRegular" horiz-adv-x="1239" >
<font-face units-per-em="2048" ascent="1638" descent="-410" />
<missing-glyph horiz-adv-x="505" />
<glyph unicode=" "  horiz-adv-x="505" />
<glyph unicode="&#x09;" horiz-adv-x="505" />
<glyph unicode="&#xa0;" horiz-adv-x="505" />
<glyph unicode="$" d="M160 1174q0 311 368 356v176q0 16 12.5 28.5t28.5 12.5h97q16 0 28.5 -12.5t12.5 -28.5v-170q164 -6 299 -27q35 -6 34 -34v-89q0 -33 -34 -32h-5q-270 18 -352 18q-162 0 -231.5 -44t-69.5 -154q0 -70 49 -121.5t174 -126.5l189 -113q178 -104 249.5 -199.5t71.5 -218.5 q0 -152 -86 -262t-288 -139v-193q0 -16 -12.5 -28.5t-28.5 -12.5h-97q-16 0 -28.5 12.5t-12.5 28.5v185q-147 2 -292 28q-25 4 -32 11.5t-7 25.5v84q0 33 34 33h7q213 -18 337 -18q172 0 242 63t70 182q0 76 -51.5 131.5t-194.5 143.5l-199 121q-147 90 -214.5 177 t-67.5 206z" />
<glyph unicode="%" horiz-adv-x="1626" d="M92 1016v190q0 166 72 248t205 82q274 0 274 -330v-190q0 -164 -71.5 -248t-202.5 -84t-204 84t-73 248zM219 1016q0 -215 150 -215q147 0 147 215v190q0 215 -147 215q-150 0 -150 -215v-190zM299 8q0 14 8 25l856 1450q23 39 47 39h105q16 0 16 -13q0 -6 -10 -26 l-856 -1450q-23 -41 -45 -41h-101q-20 0 -20 16zM983 317v191q0 166 72.5 249t204 83t203 -83t71.5 -249v-191q0 -164 -71.5 -247.5t-203 -83.5t-204 83.5t-72.5 247.5zM1110 317q0 -215 150 -215q147 0 147 215v191q0 215 -147 215q-150 0 -150 -215v-191z" />
<glyph unicode="&#x26;" horiz-adv-x="1388" d="M109 360v17q0 125 67.5 213t226.5 190l-14 17q-133 152 -173 235.5t-40 161.5v16q0 160 113.5 243t316.5 83q178 0 293 -85t115 -241v-16q0 -109 -63.5 -195t-250.5 -211l-57 -38l371 -400q80 141 80 361v28q0 33 32 33h88q35 0 35 -33v-28q0 -281 -129 -471l183 -195 q10 -10 10 -22q0 -23 -23 -23h-141q-18 0 -33 14l-102 111q-162 -139 -404 -139q-98 0 -184 20.5t-159.5 62.5t-115.5 116.5t-42 174.5zM297 360q0 -117 89 -175t224 -58q184 0 305 104l-407 437q-123 -78 -167 -137.5t-44 -153.5v-17zM344 1194q0 -63 31 -122.5t143 -184.5 l21 -23l69 43q147 90 191.5 145.5t44.5 141.5v16q0 188 -238 189q-262 0 -262 -189v-16z" />
<glyph unicode="(" horiz-adv-x="624" d="M123 543v26q0 274 75.5 529.5t211.5 419.5q18 23 47 22h96q20 0 20 -16q0 -12 -6 -21q-264 -389 -264 -934v-26q0 -545 264 -934q6 -10 6 -21q0 -16 -20 -16h-96q-29 0 -47 22q-135 164 -211 419.5t-76 529.5z" />
<glyph unicode=")" horiz-adv-x="624" d="M80 -412q0 10 6 21q264 389 264 934v26q0 545 -264 934q-6 8 -6 21q0 16 20 16h97q29 0 47 -22q135 -164 210.5 -419t75.5 -530v-26q0 -274 -75.5 -529.5t-210.5 -419.5q-18 -23 -47 -22h-97q-20 0 -20 16z" />
<glyph unicode="," horiz-adv-x="438" d="M41 -176q0 10 2 14l117 387q12 39 41 39h118q27 0 27 -22q0 -4 -4 -17l-154 -387q-14 -39 -38 -39h-84q-25 0 -25 25z" />
<glyph unicode="-" horiz-adv-x="681" d="M98 559v80q0 16 11.5 26.5t27.5 10.5h408q39 0 39 -37v-80q0 -35 -39 -35h-408q-39 0 -39 35z" />
<glyph unicode="." horiz-adv-x="438" d="M131 43v190q0 16 11.5 27.5t27.5 11.5h98q16 0 27.5 -11t11.5 -28v-190q0 -16 -11 -28.5t-28 -12.5h-98q-16 0 -27.5 12.5t-11.5 28.5z" />
<glyph unicode="/" horiz-adv-x="727" d="M47 29q0 8 2 12l465 1440q12 41 35 41h104q29 0 29 -29q0 -8 -2 -12l-463 -1440q-12 -41 -37 -41h-104q-29 0 -29 29z" />
<glyph unicode="0" d="M117 623v276q0 637 504 637q502 0 501 -637v-276q0 -637 -501 -637q-504 0 -504 637zM305 623q0 -479 315.5 -479.5t315.5 479.5v276q0 479 -315.5 479t-315.5 -479v-276z" />
<glyph unicode="1" d="M268 1231v104q0 14 21 27l309 147q25 12 43 13h84q16 0 27.5 -11.5t11.5 -27.5v-1442q0 -16 -10.5 -28.5t-26.5 -12.5h-113q-37 0 -36 41v1288l-265 -115q-14 -6 -26 -6q-19 0 -19 23z" />
<glyph unicode="2" d="M164 39v166q0 330 313 538l207 140q129 88 170 142t41 144q0 111 -71.5 161t-235.5 50q-147 0 -363 -30h-8q-33 0 -33 36v72q0 29 39 37q160 41 365 41q250 0 369.5 -89t119.5 -278q0 -119 -60.5 -208t-205.5 -187l-197 -133q-168 -113 -227 -206t-59 -230v-43h690 q41 0 41 -35v-90q0 -37 -41 -37h-813q-16 0 -28.5 11.5t-12.5 27.5z" />
<glyph unicode="3" d="M172 66v69q0 35 35 35h6q215 -29 344 -29q168 0 244 67.5t76 215.5v43q0 98 -56.5 174t-183.5 76h-373q-39 0 -39 37v71q0 39 39 39h373q133 0 186.5 72t53.5 172v29q0 127 -74 185t-246 58q-94 0 -344 -30h-6q-35 0 -35 34v72q0 31 39 39q197 41 346 41q246 0 378 -92 t132 -307v-29q0 -104 -50 -188t-145 -132q195 -96 195 -321v-43q0 -221 -137 -329.5t-373 -108.5q-168 0 -346 41q-39 8 -39 39z" />
<glyph unicode="4" d="M80 485v78q0 43 24 76l607 850q20 33 59 33h121q53 0 53 -45v-916h178q39 0 39 -37v-82q0 -37 -39 -36h-178v-365q0 -41 -35 -41h-118q-35 0 -35 41v365h-592q-47 0 -65.5 17t-18.5 62zM252 573q0 -12 16 -12h490v701q0 12 -8 12h-2q-8 0 -17 -12l-473 -672q-6 -9 -6 -17 z" />
<glyph unicode="5" d="M160 63v76q0 31 30 31h11q164 -29 358 -29q334 0 334 322v31q0 152 -99.5 213t-328.5 61h-246q-14 0 -23.5 10t-9.5 25v2l58 682q4 35 41 35h704q41 0 41 -35v-90q0 -33 -41 -33h-588l-32 -442h96q303 0 459.5 -97.5t156.5 -330.5v-31q0 -227 -137 -352t-385 -125 q-207 0 -360 37q-39 9 -39 40z" />
<glyph unicode="6" d="M123 567v359q0 322 133 466t401 144q195 0 353 -35q47 -12 47 -39v-80q0 -37 -37 -36q-2 0 -6 1t-6 1q-168 33 -351 32q-92 0 -157.5 -22.5t-102.5 -58t-57.5 -98t-26.5 -124t-6 -151.5v-23q186 41 309 41q223 0 362.5 -99.5t139.5 -328.5v-12q0 -248 -126 -383 t-374 -135q-236 0 -365.5 144t-129.5 437zM307 567q0 -240 77 -335t234 -95q152 0 234 85t82 282v12q0 154 -89 218.5t-229 64.5q-162 0 -309 -37v-195z" />
<glyph unicode="7" d="M150 1397v86q0 16 12 27.5t28 11.5h748q154 0 154 -129q0 -49 -27 -107l-590 -1255q-16 -31 -45 -31h-123q-31 0 -31 31q0 10 7 22l618 1286q2 2 2 9q0 14 -14 14h-699q-40 0 -40 35z" />
<glyph unicode="8" d="M113 424v39q0 96 52 188t146 144q-94 49 -144 132t-50 187v19q0 203 135 303t358 100h21q223 0 358 -100.5t135 -302.5v-19q0 -104 -50 -187t-144 -132q94 -51 146 -143.5t52 -188.5v-39q0 -215 -140 -326.5t-357 -111.5h-21q-217 0 -357 111.5t-140 326.5zM297 1114 q0 -104 63.5 -175t196.5 -71h127q133 0 196.5 71t63.5 175v19q0 123 -81 187t-232 64h-21q-152 0 -232.5 -64.5t-80.5 -186.5v-19zM299 424q0 -133 81 -208t230 -75h21q150 0 230.5 75t80.5 208v39q0 102 -64.5 180t-193.5 78h-127q-129 0 -193.5 -78t-64.5 -180v-39z" />
<glyph unicode="9" d="M102 1006v12q0 248 127 383t373 135q238 0 368 -144.5t130 -437.5v-358q0 -322 -133 -466t-402 -144q-195 0 -352 34q-49 12 -49 39v80q0 37 37 37q2 0 6 -1t6 -1q168 -33 350 -33q92 0 157.5 22.5t103.5 58.5t58.5 98.5t26.5 124t6 151.5v22q-190 -41 -309 -40 q-225 0 -364.5 99.5t-139.5 328.5zM287 1006q0 -154 89 -218.5t228 -64.5q162 0 309 37l2 194q0 240 -76.5 335t-234.5 95q-154 0 -235.5 -83.5t-81.5 -282.5v-12z" />
<glyph unicode="@" horiz-adv-x="1570" d="M84 330q0 43 2 63l31 320q27 285 223.5 457.5t517.5 172.5q301 0 467 -174t166 -419q0 -360 -193 -508q-172 -131 -553 -131q-154 0 -241.5 74.5t-87.5 209.5q0 25 2 37l22 240q16 158 111.5 241.5t261.5 83.5q117 0 262 -30q43 -10 43 -43v-9l-61 -641 q178 27 238.5 142.5t60.5 333.5q0 205 -131 340t-373 135q-264 0 -422 -141.5t-180 -378.5l-31 -312q-4 -45 -4 -65q0 -195 132 -316t384 -121q123 0 295 15h2l19 -15v-65q0 -25 -33 -29q-141 -16 -285 -16q-293 0 -469 150.5t-176 398.5zM586 399q0 -141 168 -141h43 q59 0 88 4l51 576q-86 12 -139 12q-90 0 -133 -44t-54 -138l-22 -234q-2 -12 -2 -35z" />
<glyph unicode="A" horiz-adv-x="1296" d="M59 33q0 10 2 14l379 1333q43 156 209 156q164 0 207 -154l379 -1335q2 -4 2 -14q0 -33 -35 -33h-121q-27 0 -34 31l-134 471h-530l-131 -471q-8 -31 -37 -31h-121q-35 0 -35 33zM422 664h452l-186 673q-10 37 -39 37q-31 0 -41 -37z" />
<glyph unicode="B" horiz-adv-x="1261" d="M160 80v1364q0 70 65 76q135 16 326 16q600 0 600 -395v-33q0 -113 -57.5 -197t-161.5 -125q106 -37 166.5 -125t60.5 -206v-35q0 -434 -598 -434q-217 0 -334 18q-67 8 -67 76zM348 152q20 0 96 -4.5t117 -4.5q207 0 309.5 59.5t102.5 217.5v35q0 260 -309 260h-316 v-563zM348 864h316q301 0 301 244v33q0 137 -103.5 187t-310.5 50q-31 0 -203 -6v-508z" />
<glyph unicode="C" horiz-adv-x="1116" d="M123 618v285q0 180 48 309t130 197t171 97.5t192 29.5q137 0 344 -33q33 -4 32 -26v-105q0 -23 -24 -22h-6q-221 18 -344 18q-356 0 -357 -465v-285q0 -244 96.5 -354t260.5 -110q141 0 338 16h8q33 0 32 -33v-84q0 -33 -40 -41q-139 -27 -340 -26q-102 0 -192.5 30.5 t-171.5 98t-129 196.5t-48 307z" />
<glyph unicode="D" horiz-adv-x="1312" d="M160 57v1407q0 45 43 52q119 20 372 20q295 0 458 -157.5t163 -479.5v-276q0 -319 -164 -478t-457 -159q-254 0 -372 20q-43 6 -43 51zM348 150q66 -4 227 -5q434 0 435 478v276q0 260 -116 368.5t-319 108.5q-125 0 -227 -6v-1220z" />
<glyph unicode="E" horiz-adv-x="1128" d="M160 367v788q0 201 108.5 291t327.5 90q270 0 399 -12q20 -4 21 -29v-102q0 -25 -23 -25h-395q-156 0 -204 -45t-48 -168v-285h629q16 0 28.5 -12t12.5 -29v-77q0 -16 -12.5 -28.5t-28.5 -12.5h-629v-344q0 -123 48 -168t204 -45h395q23 0 23 -25v-104q0 -25 -21 -29 q-98 -10 -399 -10q-219 0 -327.5 90t-108.5 291z" />
<glyph unicode="F" horiz-adv-x="1128" d="M160 41v1114q0 201 108.5 291t327.5 90q270 0 399 -12q20 -4 21 -29v-102q0 -25 -23 -25h-395q-156 0 -204 -45t-48 -168v-285h629q16 0 28.5 -12t12.5 -29v-77q0 -16 -12.5 -28.5t-28.5 -12.5h-629v-670q0 -16 -12 -28.5t-29 -12.5h-104q-16 0 -28.5 12.5t-12.5 28.5z " />
<glyph unicode="G" horiz-adv-x="1253" d="M119 623v274q0 178 48 308t130 200t173 100.5t198 30.5q207 0 389 -29q35 -4 35 -30v-103q0 -20 -27 -20h-8q-170 14 -389 14q-362 0 -363 -471v-274q0 -240 95.5 -355.5t248.5 -115.5q111 0 258 12v586q0 41 37 41h111q16 0 27.5 -12.5t11.5 -28.5v-689q0 -39 -37 -45 q-188 -31 -408 -30q-100 0 -191 34.5t-169 106.5t-124 200t-46 296z" />
<glyph unicode="H" horiz-adv-x="1392" d="M160 41v1440q0 16 12 28.5t29 12.5h104q16 0 28.5 -12.5t12.5 -28.5v-594h701v594q0 16 12 28.5t28 12.5h105q16 0 28.5 -12.5t12.5 -28.5v-1440q0 -16 -12.5 -28.5t-28.5 -12.5h-105q-16 0 -28 12.5t-12 28.5v680h-701v-680q0 -16 -12 -28.5t-29 -12.5h-104 q-16 0 -28.5 12.5t-12.5 28.5z" />
<glyph unicode="I" horiz-adv-x="546" d="M180 41v1442q0 39 37 39h113q16 0 26.5 -11.5t10.5 -27.5v-1442q0 -16 -10.5 -28.5t-26.5 -12.5h-113q-14 0 -25.5 12.5t-11.5 28.5z" />
<glyph unicode="J" horiz-adv-x="526" d="M-72 -254q0 35 41 35h80q78 0 104.5 31.5t26.5 111.5v1559q0 16 12.5 27.5t26.5 11.5h109q16 0 27.5 -11.5t11.5 -27.5v-1559q0 -150 -76 -221.5t-242 -71.5q-76 0 -108 17q-12 6 -13 22v76z" />
<glyph unicode="K" horiz-adv-x="1243" d="M160 41v1442q0 16 11 27.5t28 11.5h108q16 0 27.5 -11.5t11.5 -27.5v-662l590 682q18 18 41 19h147q29 0 29 -23q0 -12 -8 -20l-617 -697l617 -737q10 -10 10 -25q0 -20 -27 -20h-159q-27 0 -45 20l-578 703v-682q0 -16 -10 -28.5t-27 -12.5h-112q-14 0 -25.5 12.5 t-11.5 28.5z" />
<glyph unicode="L" horiz-adv-x="1052" d="M160 367v1114q0 16 12 28.5t29 12.5h104q16 0 28.5 -12.5t12.5 -28.5v-1114q0 -123 48 -168t204 -45h395q23 0 23 -25v-96q0 -25 -21 -29q-119 -18 -399 -18q-74 0 -130 7t-116.5 30.5t-99.5 63.5t-64.5 111t-25.5 169z" />
<glyph unicode="M" horiz-adv-x="1558" d="M160 41v1421q0 25 17.5 42.5t41.5 17.5h133q49 0 66 -35l338 -703q10 -23 24.5 -22.5t24.5 22.5l338 703q16 35 65 35h133q25 0 42.5 -17.5t17.5 -42.5v-1421q0 -16 -12.5 -28.5t-28.5 -12.5h-100q-16 0 -28.5 12.5t-12.5 28.5v1214q0 6 -2.5 6.5t-4.5 -4.5l-292 -606 q-16 -33 -36 -46t-57 -13h-94q-37 0 -56.5 13t-35.5 46l-293 606q-2 4 -4 4.5t-2 -6.5v-1214q0 -16 -12.5 -28.5t-28.5 -12.5h-100q-16 0 -28.5 12.5t-12.5 28.5z" />
<glyph unicode="N" horiz-adv-x="1392" d="M160 25v1439q0 25 17.5 41.5t41.5 16.5h113q41 0 56 -8.5t28 -32.5l628 -1196l5 -6q2 0 2 6v1198q0 16 11 27.5t25 11.5h109q37 0 37 -39v-1424q0 -25 -17.5 -42t-41.5 -17h-127q-49 0 -66 33l-633 1202q-4 6 -6 6t-2 -6v-1196q0 -16 -11.5 -27.5t-25.5 -11.5h-106 q-37 0 -37 25z" />
<glyph unicode="O" horiz-adv-x="1353" d="M123 629v264q0 326 150.5 484.5t404.5 158.5t403.5 -157.5t149.5 -485.5v-264q0 -328 -149.5 -485.5t-403.5 -157.5t-404.5 158.5t-150.5 484.5zM311 629q0 -475 367 -475q365 0 364 475v264q0 475 -364 475q-367 0 -367 -475v-264z" />
<glyph unicode="P" horiz-adv-x="1214" d="M160 41v1427q0 45 49 52q141 16 340 16q573 0 573 -444v-27q0 -459 -573 -459q-72 0 -205 10v-575q0 -16 -10 -28.5t-27 -12.5h-110q-14 0 -25.5 12.5t-11.5 28.5zM344 770q188 -8 205 -8q209 0 298 70.5t89 232.5v27q0 154 -93 220t-294 66q-106 0 -205 -8v-600z" />
<glyph unicode="Q" horiz-adv-x="1353" d="M123 629v264q0 326 150.5 484.5t404.5 158.5t403.5 -157.5t149.5 -485.5v-264q0 -297 -124 -455t-341 -184v-88q0 -76 23.5 -97.5t103.5 -21.5h121q45 0 45 -33v-69q0 -49 -166 -50q-160 0 -233.5 57.5t-73.5 211.5v92q-215 27 -339 184.5t-124 452.5zM311 629 q0 -475 367 -475q365 0 364 475v264q0 475 -364 475q-367 0 -367 -475v-264z" />
<glyph unicode="R" horiz-adv-x="1280" d="M160 41v1434q0 39 49 45q141 16 360 16q573 0 574 -440v-15q0 -166 -87 -270t-235 -143l373 -623q6 -8 6 -18q0 -27 -26 -27h-132q-37 0 -53 27l-366 610h-19h-35q-61 0 -225 6v-602q0 -16 -10 -28.5t-27 -12.5h-110q-14 0 -25.5 12.5t-11.5 28.5zM344 801q180 -4 225 -4 q199 0 294 62.5t95 221.5v15q0 150 -95 211t-294 61q-176 0 -225 -6v-561z" />
<glyph unicode="S" horiz-adv-x="1126" d="M102 1174q0 362 490 362q201 0 356 -25q35 -6 35 -34v-88q0 -33 -35 -33h-4q-180 12 -352 12q-162 0 -231.5 -42t-69.5 -152q0 -70 49 -121.5t174 -126.5l188 -113q178 -104 250 -199.5t72 -218.5q0 -80 -23.5 -147.5t-77 -130t-156.5 -97t-249 -34.5q-160 0 -340 28 q-25 4 -32 11.5t-7 25.5v82q0 33 35 33h6q141 -12 338 -12q174 0 242.5 62.5t68.5 178.5q0 76 -51 131.5t-194 143.5l-199 121q-147 90 -215 177t-68 206z" />
<glyph unicode="T" horiz-adv-x="1208" d="M72 1395v90q0 14 12 25.5t29 11.5h985q39 0 39 -37v-90q0 -33 -39 -33h-400v-1321q0 -16 -10 -28.5t-26 -12.5h-113q-14 0 -25.5 12.5t-11.5 28.5v1321h-399q-41 0 -41 33z" />
<glyph unicode="U" horiz-adv-x="1355" d="M154 553v930q0 16 11 27.5t28 11.5h110q16 0 27.5 -11.5t11.5 -27.5v-930q0 -207 76 -307.5t260 -100.5t260 99.5t76 308.5v930q0 16 11 27.5t28 11.5h110q16 0 27.5 -11.5t11.5 -27.5v-930q0 -567 -524 -567t-524 567z" />
<glyph unicode="V" horiz-adv-x="1316" d="M70 1487q0 35 36 35h119q29 0 37 -31l356 -1305q12 -43 41 -43q27 0 39 43l359 1305q8 31 35 31h120q35 0 35 -35q0 -8 -2 -12l-377 -1334q-45 -156 -208.5 -155.5t-208.5 155.5l-379 1334q-2 4 -2 12z" />
<glyph unicode="W" horiz-adv-x="1689" d="M72 1481v6q0 35 34 35h119q29 0 35 -35l199 -1305q6 -31 10 -30q8 0 14 30l201 758q20 82 96 82h131q76 0 97 -82l200 -758q6 -31 15 -30q4 0 10 30l199 1305q6 35 34 35h119q35 0 35 -35v-6l-227 -1385q-18 -104 -127 -104h-88q-43 0 -74 27.5t-43 74.5l-201 758 q-4 18 -12 18h-2h-2q-8 0 -13 -18l-202 -758q-12 -47 -43 -74.5t-74 -27.5h-86q-109 0 -127 104z" />
<glyph unicode="X" horiz-adv-x="1323" d="M94 31q0 10 6 20l455 723l-451 699q-6 10 -6 20q0 29 31 29h133q25 0 37 -21l369 -583l356 583q14 20 39 21h121q33 0 33 -31q0 -8 -7 -18l-440 -703l461 -719q6 -10 6 -22q0 -29 -33 -29h-129q-23 0 -43 31l-375 596l-366 -596q-20 -31 -43 -31h-121q-33 0 -33 31z" />
<glyph unicode="Y" horiz-adv-x="1193" d="M72 1493q0 29 34 29h125q25 0 37 -29l283 -664q23 -53 47.5 -53t46.5 53l285 664q12 29 35 29h125q35 0 34 -29q0 -10 -6 -23l-317 -712q-49 -106 -111 -135v-582q0 -16 -11 -28.5t-26 -12.5h-112q-14 0 -25.5 12.5t-11.5 28.5v582q-59 23 -111 135l-315 712q-6 13 -6 23 z" />
<glyph unicode="Z" horiz-adv-x="1222" d="M115 139q0 74 30 119l734 1067q6 10 6 16q0 14 -21 15h-680q-41 0 -41 35v96q0 35 41 35h729q92 0 133 -28t41 -108q0 -72 -32 -120l-731 -1067q-6 -10 -7 -19q0 -12 21 -12h735q41 0 41 -35v-96q0 -14 -12 -25.5t-29 -11.5h-788q-98 0 -134 28.5t-36 110.5z" />
<glyph unicode="[" horiz-adv-x="669" d="M164 -358v1841q0 16 10 27.5t25 11.5h381q16 0 28.5 -12.5t12.5 -28.5v-68q0 -16 -12.5 -28.5t-28.5 -12.5h-234v-1620h234q16 0 28.5 -12t12.5 -29v-67q0 -16 -12.5 -28.5t-28.5 -12.5h-381q-14 0 -24.5 11.5t-10.5 27.5z" />
<glyph unicode="]" horiz-adv-x="669" d="M49 -289q0 16 12.5 28.5t28.5 12.5h234v1620h-234q-16 0 -28.5 12.5t-12.5 28.5v68q0 16 12.5 28.5t28.5 12.5h381q14 0 24.5 -11.5t10.5 -27.5v-1841q0 -16 -10.5 -27.5t-24.5 -11.5h-381q-16 0 -28.5 12t-12.5 29v67z" />
<glyph unicode="a" horiz-adv-x="1062" d="M98 317v25q0 170 114 251t380 81h151v82q0 129 -49 180t-170 51q-150 0 -313 -16h-10q-37 0 -37 33v71q0 33 43 39q156 27 317 27q399 0 400 -385v-715q0 -16 -12.5 -28.5t-28.5 -12.5h-95q-16 0 -28 12.5t-12 28.5v45q-172 -100 -316 -100q-147 0 -240.5 76.5 t-93.5 254.5zM279 319q0 -104 46 -145t142 -41q125 0 276 82v330h-151q-182 0 -247.5 -44t-65.5 -157v-25z" />
<glyph unicode="b" horiz-adv-x="1107" d="M139 68v1433q0 39 37 39h105q16 0 27 -11t11 -28v-381q111 20 240 21q221 0 334 -129t113 -373v-147q0 -238 -112 -372t-335 -134q-197 0 -377 34q-27 4 -35 14.5t-8 33.5zM319 156q139 -12 240 -13q145 0 205.5 86t60.5 263v147q0 172 -60 258t-206 86q-162 0 -240 -14 v-813z" />
<glyph unicode="c" horiz-adv-x="925" d="M102 483v160q0 229 115 363.5t322 134.5q133 0 256 -23q25 -4 33 -13t8 -32v-74q0 -31 -35 -30h-8q-127 14 -254 14q-256 0 -256 -340v-160q0 -340 256 -340q127 0 254 15h8q35 0 35 -31v-74q0 -37 -41 -45q-123 -23 -256 -22q-207 0 -322 134t-115 363z" />
<glyph unicode="d" horiz-adv-x="1107" d="M102 492v147q0 244 113 373t334 129q125 0 239 -21v381q0 16 11.5 27.5t27.5 11.5h105q16 0 26.5 -11t10.5 -28v-1433q0 -23 -8.5 -33t-34.5 -15q-180 -35 -377 -34q-223 0 -335 134t-112 372zM283 492q0 -176 60 -262.5t206 -86.5q100 0 239 13v813q-80 14 -239 14 q-145 0 -205.5 -86t-60.5 -258v-147z" />
<glyph unicode="e" horiz-adv-x="1114" d="M102 477v185q0 223 119 351t336 128q219 0 335 -128t116 -351v-111q0 -45 -39 -45h-686v-29q0 -178 69.5 -256t214.5 -78q217 0 365 23h10q33 0 33 -29v-69q0 -39 -41 -48q-180 -35 -367 -34q-94 0 -173 24.5t-146.5 77.5t-106.5 152.5t-39 236.5zM283 643h542v19 q0 170 -65.5 245.5t-202.5 75.5q-274 0 -274 -321v-19z" />
<glyph unicode="f" horiz-adv-x="780" d="M51 1034v56q0 16 11.5 26t27.5 10h199v148q0 158 71.5 221.5t214.5 63.5q61 0 115 -13q39 -10 39 -33v-67q0 -31 -37 -31h-98q-74 0 -99.5 -28.5t-25.5 -112.5v-148h215q16 0 27.5 -10t11.5 -26v-80q0 -35 -39 -35h-215v-934q0 -16 -12.5 -28.5t-26.5 -12.5h-100 q-16 0 -28.5 12.5t-12.5 28.5v934l-199 22q-39 4 -39 37z" />
<glyph unicode="g" horiz-adv-x="1144" d="M111 -66q0 162 129 261l-15 6q-94 41 -94 159v2q0 100 84 148q-94 88 -94 238v16q0 158 105.5 260t348.5 102h449q18 0 32.5 -13t14.5 -32v-53q0 -33 -37 -39l-73 -14q70 -74 69 -211v-16q0 -350 -455 -351q-139 0 -237 41q-51 -25 -51 -69q0 -49 63 -66l305 -78 q74 -18 120 -32.5t104.5 -40t90 -54t55.5 -73.5t24 -101v-16q0 -317 -467 -318q-238 0 -354.5 85t-116.5 241v18zM287 -66v-18q0 -92 66.5 -139t228.5 -47q166 0 226 43t60 135v16q0 57 -53 90t-197 70l-231 59q-51 -43 -75.5 -89t-24.5 -120zM299 748q0 -209 276 -209 q156 0 216.5 54t60.5 155v16q0 102 -61.5 160.5t-215.5 58.5q-158 0 -217 -59.5t-59 -159.5v-16z" />
<glyph unicode="h" horiz-adv-x="1140" d="M139 41v1458q0 16 11.5 28.5t27.5 12.5h103q16 0 27 -12t11 -29v-422q145 63 314 64q172 0 270 -104.5t98 -321.5v-674q0 -16 -12 -28.5t-28 -12.5h-99q-16 0 -28.5 12.5t-12.5 28.5v674q0 145 -56 206.5t-163 61.5q-156 0 -283 -57v-885q0 -16 -12 -28.5t-28 -12.5h-101 q-16 0 -27.5 12.5t-11.5 28.5z" />
<glyph unicode="i" horiz-adv-x="505" d="M160 1348v163q0 16 12 28.5t29 12.5h104q16 0 28.5 -12t12.5 -29v-163q0 -16 -12 -28.5t-29 -12.5h-104q-16 0 -28.5 12.5t-12.5 28.5zM162 41v1044q0 16 12 28.5t29 12.5h98q16 0 28.5 -12t12.5 -29v-1044q0 -16 -12.5 -28.5t-28.5 -12.5h-98q-16 0 -28.5 12.5 t-12.5 28.5z" />
<glyph unicode="j" horiz-adv-x="505" d="M-61 -287q0 29 43 29h84q57 0 76.5 24.5t19.5 102.5v1216q0 16 10 28.5t27 12.5h106q37 0 37 -41v-1216q0 -154 -62.5 -213t-193.5 -59q-55 0 -111 8q-37 6 -36 33v75zM160 1346v165q0 16 12 28.5t29 12.5h104q16 0 28.5 -12t12.5 -29v-165q0 -16 -12 -27.5t-29 -11.5 h-104q-16 0 -28.5 11.5t-12.5 27.5z" />
<glyph unicode="k" horiz-adv-x="1015" d="M139 41v1458q0 16 12.5 28.5t28.5 12.5h99q16 0 28 -12t12 -29v-852l410 461q16 18 41 18h143q31 0 31 -22q0 -12 -10 -23l-451 -487l455 -549q6 -6 6 -18q0 -27 -22 -27h-148q-27 0 -47 27l-408 503v-489q0 -16 -12 -28.5t-28 -12.5h-99q-16 0 -28.5 12.5t-12.5 28.5z " />
<glyph unicode="l" horiz-adv-x="499" d="M160 41v1460q0 39 37 39h106q16 0 26.5 -11t10.5 -28v-1460q0 -16 -10.5 -28.5t-26.5 -12.5h-106q-14 0 -25.5 12.5t-11.5 28.5z" />
<glyph unicode="m" horiz-adv-x="1634" d="M139 41v1044q0 16 11.5 28.5t27.5 12.5h103q16 0 27 -12t11 -29v-38q154 96 299 96q133 0 205 -84q178 84 340 84q332 0 332 -377v-725q0 -16 -12.5 -28.5t-28.5 -12.5h-98q-16 0 -28.5 12.5t-12.5 28.5v725q0 219 -187 219q-96 0 -239 -55q18 -68 18 -160v-729 q0 -16 -10 -28.5t-27 -12.5h-108q-35 0 -35 41v729q0 127 -36 171t-122 44q-90 0 -250 -80v-864q0 -16 -10 -28.5t-26 -12.5h-109q-35 0 -35 41z" />
<glyph unicode="n" horiz-adv-x="1140" d="M139 41v1044q0 16 11.5 28.5t27.5 12.5h103q16 0 27 -12t11 -29v-38q168 94 326 94q356 0 356 -426v-674q0 -16 -12 -28.5t-28 -12.5h-99q-16 0 -28.5 12.5t-12.5 28.5v674q0 152 -52 211t-173 59q-117 0 -277 -80v-864q0 -16 -12 -28.5t-28 -12.5h-101q-16 0 -27.5 12.5 t-11.5 28.5z" />
<glyph unicode="o" horiz-adv-x="1116" d="M102 485v156q0 231 117 365.5t338 134.5t339 -134.5t118 -365.5v-156q0 -231 -118 -365t-339 -134t-338 134t-117 365zM283 485q0 -342 274 -342q139 0 208 89.5t69 252.5v156q0 342 -277 342q-274 0 -274 -342v-156z" />
<glyph unicode="p" horiz-adv-x="1107" d="M139 -362v1409q0 20 8.5 30t34.5 17q193 47 377 47q223 0 335 -134.5t112 -371.5v-148q0 -244 -113 -372.5t-334 -128.5q-115 0 -240 22v-370q0 -16 -11 -27.5t-27 -11.5h-105q-16 0 -26.5 11.5t-10.5 27.5zM319 158q113 -20 240 -21q143 0 204.5 88t61.5 262v148 q0 172 -60 263t-206 91q-125 0 -240 -20v-811z" />
<glyph unicode="q" horiz-adv-x="1107" d="M102 487v148q0 238 112 372t335 134q184 0 377 -47q27 -6 35 -15.5t8 -31.5v-1409q0 -39 -37 -39h-105q-16 0 -27.5 11t-11.5 28v370q-123 -23 -239 -22q-221 0 -334 128.5t-113 372.5zM283 487q0 -174 61.5 -262t204.5 -88q127 0 239 21v811q-111 20 -239 20 q-145 0 -205.5 -90t-60.5 -264v-148z" />
<glyph unicode="r" horiz-adv-x="700" d="M139 41v1044q0 16 11.5 28.5t27.5 12.5h96q16 0 27.5 -12t11.5 -29v-43q141 98 289 99q43 0 43 -37v-84q0 -35 -43 -35q-139 0 -283 -86v-858q0 -16 -12 -28.5t-28 -12.5h-101q-16 0 -27.5 12.5t-11.5 28.5z" />
<glyph unicode="s" horiz-adv-x="954" d="M102 57v72q0 31 37 31h8q180 -23 322 -23q104 0 153.5 33t49.5 113q0 45 -33 80.5t-121 89.5l-207 122q-209 127 -209 293q0 272 371 273q164 0 320 -27q39 -6 38 -41v-67q0 -35 -34 -35h-6q-190 16 -318 16q-98 0 -144 -23.5t-46 -95.5q0 -43 32.5 -76.5t108.5 -78.5 l203 -121q125 -74 175 -145.5t50 -163.5q0 -152 -101.5 -224.5t-281.5 -72.5q-199 0 -324 30q-43 10 -43 41z" />
<glyph unicode="t" horiz-adv-x="788" d="M51 1034v56q0 37 39 36h199v201q0 35 37 41l106 16h6q31 0 31 -34v-224h221q16 0 28.5 -12t12.5 -29v-69q0 -16 -12 -28.5t-29 -12.5h-221v-715q0 -82 22.5 -105.5t88.5 -23.5h114q43 0 43 -29v-71q0 -29 -37 -35q-68 -10 -133 -10q-150 0 -214 56t-64 218v715l-199 22 q-39 4 -39 37z" />
<glyph unicode="u" horiz-adv-x="1140" d="M139 412v673q0 16 12.5 28.5t28.5 12.5h99q16 0 28 -12t12 -29v-673q0 -152 52.5 -211.5t173.5 -59.5q117 0 276 80v864q0 16 12.5 28.5t28.5 12.5h101q16 0 27 -12t11 -29v-1044q0 -16 -11 -28.5t-27 -12.5h-103q-16 0 -27.5 12.5t-11.5 28.5v39q-168 -94 -325 -94 q-357 0 -357 426z" />
<glyph unicode="v" horiz-adv-x="1085" d="M80 1092q0 35 33 34h112q27 0 39 -39l236 -892q14 -59 42.5 -59.5t43.5 59.5l235 892q12 39 39 39h113q33 0 33 -34q0 -8 -2 -15l-277 -975q-33 -117 -184.5 -116.5t-184.5 116.5l-276 975q-2 7 -2 15z" />
<glyph unicode="w" horiz-adv-x="1609" d="M78 1077v8q0 16 11 28.5t28 12.5h110q31 0 35 -32l170 -934q4 -25 17 -25q10 0 16 25l201 786q16 61 82 62h114q66 0 82 -62l201 -786q6 -25 16 -25q12 0 17 25l170 934q4 33 34 32h111q16 0 27.5 -12t11.5 -29v-8l-199 -950q-20 -94 -49 -117.5t-123 -23.5 q-82 0 -112.5 26.5t-55.5 120.5l-178 696q-4 14 -10 14.5t-10 -14.5l-179 -696q-23 -90 -55.5 -118.5t-111.5 -28.5q-94 0 -123 23.5t-50 117.5z" />
<glyph unicode="x" horiz-adv-x="1120" d="M82 20q0 14 10 27l369 526l-348 502q-10 16 -11 27q0 25 31 24h133q23 0 41 -28l260 -385l262 385q20 29 43 28h119q27 0 27 -24q0 -10 -10 -27l-344 -489l374 -539q8 -10 9 -24q0 -23 -27 -23h-141q-18 0 -29 16l-293 428l-293 -424q-14 -20 -35 -20h-123q-24 0 -24 20z " />
<glyph unicode="y" horiz-adv-x="1093" d="M80 1092q0 35 37 34h112q27 0 35 -32l242 -889q10 -45 39 -45h33l249 936q8 31 39 30h115q33 0 33 -34q0 -10 -2 -15l-338 -1179q-49 -172 -126 -238t-249 -66q-94 0 -172 19q-43 10 -43 33v75q0 33 39 33h6q135 -12 182 -12q90 0 134 35t69 139l21 84h-29 q-55 0 -91 27.5t-61 113.5l-272 936q-2 5 -2 15z" />
<glyph unicode="z" horiz-adv-x="987" d="M100 113v39q0 72 47 133l529 657q8 12 8 19q0 14 -20 14h-498q-16 0 -28.5 12t-12.5 29v69q0 16 12.5 28.5t28.5 12.5h602q115 0 115 -100v-49q0 -57 -47 -113l-539 -674q-10 -10 -10 -22q0 -16 16 -16h541q16 0 28.5 -12.5t12.5 -28.5v-70q0 -16 -12.5 -28.5 t-28.5 -12.5h-619q-61 0 -93 33t-32 80z" />
<glyph unicode="{" horiz-adv-x="677" d="M41 502v119q72 51 97.5 104t25.5 149v365q0 164 63.5 223.5t249.5 59.5h103q16 0 28.5 -12.5t12.5 -28.5v-68q0 -16 -12.5 -28.5t-28.5 -12.5h-93q-90 0 -115.5 -25.5t-25.5 -107.5v-365q0 -113 -32.5 -186.5t-112.5 -128.5q80 -55 112.5 -129t32.5 -184v-361 q0 -82 25.5 -107.5t115.5 -25.5h95q16 0 28.5 -12t12.5 -29v-67q0 -16 -12.5 -28.5t-28.5 -12.5h-105q-186 0 -249.5 59t-63.5 223v361q0 96 -25.5 151.5t-97.5 104.5z" />
<glyph unicode="|" horiz-adv-x="509" d="M164 -358v1841q0 16 12 27.5t27 11.5h106q14 0 25.5 -11.5t11.5 -27.5v-1841q0 -16 -11 -27.5t-26 -11.5h-106q-14 0 -26.5 12.5t-12.5 26.5z" />
<glyph unicode="}" horiz-adv-x="677" d="M55 -289q0 16 12.5 28.5t28.5 12.5h94q90 0 116 25.5t26 107.5v361q0 111 32.5 184.5t112.5 128.5q-80 55 -112.5 129t-32.5 186v365q0 82 -25.5 107.5t-116.5 25.5h-92q-16 0 -28.5 12.5t-12.5 28.5v68q0 16 12.5 28.5t28.5 12.5h103q186 0 249.5 -59.5t63.5 -223.5 v-365q0 -96 25.5 -149t97.5 -104v-119q-72 -49 -97.5 -104.5t-25.5 -151.5v-361q0 -164 -63.5 -223t-249.5 -59h-105q-16 0 -28.5 12t-12.5 29v67z" />
<glyph unicode="&#xa2;" d="M254 483v160q0 199 87 327t247 160v191q0 16 12 28.5t29 12.5h84q16 0 28.5 -12.5t12.5 -28.5v-182q100 -6 192 -21q25 -4 33 -13t8 -32v-74q0 -31 -35 -30h-8q-143 16 -254 16q-256 0 -256 -342v-160q0 -342 256 -342q111 0 254 17h8q35 0 35 -31v-74q0 -37 -41 -45 q-92 -14 -192 -20v-185q0 -16 -12.5 -28.5t-28.5 -12.5h-84q-16 0 -28.5 12.5t-12.5 28.5v193q-160 33 -247 160.5t-87 326.5z" />
<glyph unicode="&#xa3;" d="M143 748v86q0 14 12.5 25t28.5 11h103v134q0 266 100 391t352 125q158 0 318 -27q25 -4 32 -11t7 -24v-84q0 -35 -31 -35h-10q-199 23 -316 23q-158 0 -212 -75t-54 -283v-134h440q16 0 27.5 -10t11.5 -26v-86q0 -14 -12 -25.5t-29 -11.5h-438v-312q0 -113 -72 -243h654 q41 0 41 -31v-90q0 -35 -41 -35h-817q-35 0 -35 31v80q0 12 20 47q63 109 64 241v312h-107q-37 0 -37 37z" />
<glyph unicode="&#xa5;" d="M74 473v62q0 16 12 28t29 12h411v43l-112 226h-299q-16 0 -28.5 12t-12.5 29v61q0 16 12 28.5t29 12.5h227l-244 483q-6 16 -6 25q0 27 33 27h129q23 0 35 -29l332 -694l331 694q12 29 35 29h127q35 0 35 -29q0 -10 -6 -23l-244 -483h225q16 0 28.5 -12t12.5 -29v-61 q0 -16 -12 -28.5t-29 -12.5h-297l-112 -226v-43h409q16 0 28.5 -12t12.5 -28v-62q0 -16 -12 -28.5t-29 -12.5h-409v-391q0 -16 -10.5 -28.5t-26.5 -12.5h-117q-35 0 -35 41v391h-411q-16 0 -28.5 12.5t-12.5 28.5z" />
<glyph unicode="&#xa9;" horiz-adv-x="1536" d="M102 766q0 276 195 473t469 197t471 -198t197 -472t-197 -469t-471 -195t-469 195t-195 469zM190 766q0 -240 168 -406.5t408 -166.5t408.5 166.5t168.5 406.5t-168.5 410t-408.5 170t-408 -170t-168 -410zM444 705v135q0 195 86 286t228 91q104 0 186 -17q31 -4 31 -29 v-57q0 -25 -27 -24h-6q-106 10 -184 10q-186 0 -187 -260v-135q0 -258 187 -259q78 0 184 11h4q29 0 29 -27v-55q0 -27 -31 -31q-72 -14 -186 -14q-141 0 -227.5 90t-86.5 285z" />
<glyph unicode="&#xaa;" horiz-adv-x="618" d="M61 1063v14q0 98 71 143.5t220 45.5h66v26q0 72 -24.5 100.5t-86.5 28.5q-53 0 -172 -10h-4q-29 0 -29 27v43q0 25 31 28q100 18 174 19q233 0 234 -236v-370q0 -29 -21 -33q-92 -27 -201 -27q-137 0 -197.5 48.5t-60.5 152.5zM180 1063q0 -55 30 -80t109 -25 q45 0 101 11v211h-47h-19q-98 -4 -136 -25.5t-38 -77.5v-14z" />
<glyph unicode="&#xab;" horiz-adv-x="1257" d="M61 567q0 35 23 58l346 346q20 20 43 20h119q23 0 22 -18q0 -14 -12 -27l-364 -379l364 -379q12 -12 12 -26q0 -18 -22 -19h-119q-23 0 -43 21l-346 346q-23 22 -23 57zM594 567q0 35 22 58l347 346q20 20 43 20h118q23 0 23 -18q0 -14 -12 -27l-365 -379l365 -379 q12 -12 12 -26q0 -18 -23 -19h-118q-23 0 -43 21l-347 346q-22 22 -22 57z" />
<glyph unicode="&#xad;" horiz-adv-x="681" d="M98 559v80q0 16 11.5 26.5t27.5 10.5h408q39 0 39 -37v-80q0 -35 -39 -35h-408q-39 0 -39 35z" />
<glyph unicode="&#xae;" horiz-adv-x="1224" d="M61 991.5q0 229.5 161 390t390.5 160.5t391 -160.5t161.5 -390t-161.5 -389.5t-391 -160t-390.5 160t-161 389.5zM147 991q0 -193 135.5 -329t330 -136t331.5 136.5t137 329t-137 330.5t-332 138q-193 0 -329 -137t-136 -332zM385 682v618q0 43 37 46q45 6 156 6 q133 0 200.5 -47.5t67.5 -159.5v-8q0 -145 -137 -185l157 -256q4 -8 4 -18q0 -27 -24 -27h-58q-16 0 -24 17l-166 262l-25 6h-81v-254q0 -12 -8.5 -21.5t-20.5 -9.5h-51q-27 0 -27 31zM489 1026q12 0 49 -1t46 -1q86 0 122.5 25.5t36.5 87.5v8q0 61 -36.5 85.5t-122.5 24.5 h-66h-29v-229z" />
<glyph unicode="&#xb2;" d="M164 39v166q0 330 313 538l207 140q129 88 170 142t41 144q0 111 -71.5 161t-235.5 50q-147 0 -363 -30h-8q-33 0 -33 36v72q0 29 39 37q160 41 365 41q250 0 369.5 -89t119.5 -278q0 -119 -60.5 -208t-205.5 -187l-197 -133q-168 -113 -227 -206t-59 -230v-43h690 q41 0 41 -35v-90q0 -37 -41 -37h-813q-16 0 -28.5 11.5t-12.5 27.5z" />
<glyph unicode="&#xb3;" d="M172 66v69q0 35 35 35h6q215 -29 344 -29q168 0 244 67.5t76 215.5v43q0 98 -56.5 174t-183.5 76h-373q-39 0 -39 37v71q0 39 39 39h373q133 0 186.5 72t53.5 172v29q0 127 -74 185t-246 58q-94 0 -344 -30h-6q-35 0 -35 34v72q0 31 39 39q197 41 346 41q246 0 378 -92 t132 -307v-29q0 -104 -50 -188t-145 -132q195 -96 195 -321v-43q0 -221 -137 -329.5t-373 -108.5q-168 0 -346 41q-39 8 -39 39z" />
<glyph unicode="&#xb9;" d="M268 1231v104q0 14 21 27l309 147q25 12 43 13h84q16 0 27.5 -11.5t11.5 -27.5v-1442q0 -16 -10.5 -28.5t-26.5 -12.5h-113q-37 0 -36 41v1288l-265 -115q-14 -6 -26 -6q-19 0 -19 23z" />
<glyph unicode="&#xba;" horiz-adv-x="659" d="M66 1159v72q0 143 68.5 220t197.5 77t196.5 -77t67.5 -220v-72q0 -143 -67.5 -220t-196.5 -77t-197.5 77t-68.5 220zM188 1159q0 -190 144 -190q139 0 139 190v72q0 96 -32.5 142t-106.5 46q-143 0 -144 -188v-72z" />
<glyph unicode="&#xbb;" horiz-adv-x="1257" d="M111 162q0 14 12 26l364 379l-364 379q-12 12 -12 27q0 18 22 18h119q23 0 43 -20l346 -346q23 -23 23 -58t-23 -57l-346 -346q-20 -20 -43 -21h-119q-22 1 -22 19zM643 162q0 14 12 26l365 379l-365 379q-12 12 -12 27q0 18 23 18h118q23 0 43 -20l347 -346 q23 -23 22.5 -58t-22.5 -57l-347 -346q-20 -20 -43 -21h-118q-23 1 -23 19z" />
<glyph unicode="&#xc6;" horiz-adv-x="1759" d="M39 33q0 10 2 14l379 1321q45 154 209 154h997q20 0 21 -29v-109q0 -25 -23 -24h-586v-490h568q16 0 28.5 -12t12.5 -29v-77q0 -16 -12.5 -28.5t-28.5 -12.5h-568v-344q0 -123 48.5 -168t203.5 -45h334q23 0 23 -25v-100q0 -25 -21 -29q-133 -14 -338 -14 q-219 0 -327.5 90t-108.5 291v135h-490l-131 -471q-8 -31 -36 -31h-121q-35 0 -35 33zM401 664h451v696h-223q-31 0 -41 -35z" />
<glyph unicode="&#xc7;" horiz-adv-x="1116" d="M123 618v285q0 180 48 309t130 197t171 97.5t192 29.5q137 0 344 -33q33 -4 32 -26v-105q0 -23 -24 -22h-6q-221 18 -344 18q-356 0 -357 -465v-285q0 -244 96.5 -354t260.5 -110q141 0 338 16h8q33 0 32 -33v-84q0 -33 -40 -41q-139 -27 -340 -26q-102 0 -192.5 30.5 t-171.5 98t-129 196.5t-48 307zM365 -371q0 8 8 21l198 254q25 31 52 30h135q23 0 22 -14q0 -8 -8 -16l-231 -258q-29 -31 -47 -31h-111q-18 0 -18 14z" />
<glyph unicode="&#xd8;" horiz-adv-x="1353" d="M57 8q0 8 6 17l148 204q-88 152 -88 400v264q0 326 150.5 484.5t404.5 158.5q238 0 377 -131l59 84q29 39 53 39h107q23 0 22 -23q0 -6 -6 -16l-145 -201q86 -154 86 -395v-264q0 -328 -149.5 -485.5t-403.5 -157.5q-233 0 -375 129l-63 -90q-29 -39 -52 -39h-108 q-23 -1 -23 22zM311 629q0 -121 27 -221l608 847q-92 113 -268 113q-367 0 -367 -475v-264zM410 262q90 -109 268 -108q365 0 364 475v264q0 127 -24 217z" />
<glyph unicode="&#xe5;" horiz-adv-x="1062" d="M98 317v25q0 170 114 251t380 81h151v82q0 129 -49 180t-170 51q-150 0 -313 -16h-10q-37 0 -37 33v71q0 33 43 39q156 27 317 27q399 0 400 -385v-715q0 -16 -12.5 -28.5t-28.5 -12.5h-95q-16 0 -28 12.5t-12 28.5v45q-172 -100 -316 -100q-147 0 -240.5 76.5 t-93.5 254.5zM279 319q0 -104 46 -145t142 -41q125 0 276 82v330h-151q-182 0 -247.5 -44t-65.5 -157v-25zM317 1440q0 86 61.5 147.5t147.5 61.5t146.5 -61.5t60.5 -147.5t-60.5 -146.5t-146.5 -60.5t-147.5 60.5t-61.5 146.5zM420 1442q0 -45 30.5 -77t75.5 -32t77 32 t32 77t-32 75.5t-77 30.5t-75.5 -30.5t-30.5 -75.5z" />
<glyph unicode="&#xe6;" horiz-adv-x="1746" d="M98 324v18q0 172 113 252t381 80h153v82q0 129 -50 180t-171 51q-150 0 -313 -16h-4h-6q-37 0 -37 33v71q0 33 43 39q156 27 317 27q244 0 340 -144q121 143 334 144q217 0 332 -138.5t115 -365.5v-86q0 -45 -39 -45h-682v-66q0 -156 72.5 -229.5t226.5 -73.5 q162 0 350 29h4h6q33 0 33 -29v-69q0 -39 -41 -48q-180 -35 -363 -34q-240 0 -354 120q-139 -121 -369 -120q-166 0 -278.5 85t-112.5 253zM281 324q0 -102 64.5 -148.5t168.5 -46.5q147 0 231 64v350h-153q-182 0 -246.5 -44t-64.5 -157v-18zM924 643h542v10 q0 334 -268 334q-131 0 -202.5 -87t-71.5 -247v-10z" />
<glyph unicode="&#xe7;" horiz-adv-x="925" d="M102 483v160q0 229 115 363.5t322 134.5q133 0 256 -23q25 -4 33 -13t8 -32v-74q0 -31 -35 -30h-8q-127 14 -254 14q-256 0 -256 -340v-160q0 -340 256 -340q127 0 254 15h8q35 0 35 -31v-74q0 -37 -41 -45q-123 -23 -256 -22q-207 0 -322 134t-115 363zM244 -371 q0 12 8 21l199 254q25 31 51 30h135q23 0 22 -14q0 -8 -8 -16l-231 -258q-27 -31 -47 -31h-111q-18 0 -18 14z" />
<glyph unicode="&#xe9;" horiz-adv-x="1114" d="M102 477v185q0 223 119 351t336 128q219 0 335 -128t116 -351v-111q0 -45 -39 -45h-686v-29q0 -178 69.5 -256t214.5 -78q217 0 365 23h10q33 0 33 -29v-69q0 -39 -41 -48q-180 -35 -367 -34q-94 0 -173 24.5t-146.5 77.5t-106.5 152.5t-39 236.5zM283 643h542v19 q0 170 -65.5 245.5t-202.5 75.5q-274 0 -274 -321v-19zM473 1290q0 12 8 21l201 254q25 31 49 30h135q23 0 23 -14q0 -8 -8 -16l-232 -258q-27 -31 -47 -31h-110q-19 0 -19 14z" />
<glyph unicode="&#xf8;" horiz-adv-x="1116" d="M33 -55q0 14 8 22l145 197q-84 127 -84 321v156q0 231 117 365.5t338 134.5q176 0 287 -86l86 119q16 20 33 20h102q16 0 16 -16q0 -14 -8 -23l-143 -192q84 -127 84 -322v-156q0 -231 -118 -365t-339 -134q-174 0 -285 86l-90 -123q-16 -20 -32 -21h-101q-16 1 -16 17z M283 485q0 -94 20 -161l438 596q-70 63 -184 63q-274 0 -274 -342v-156zM373 207q68 -63 184 -64q276 0 277 342v156q0 86 -23 160z" />
<glyph unicode="&#xfc;" horiz-adv-x="1140" d="M139 412v673q0 16 12.5 28.5t28.5 12.5h99q16 0 28 -12t12 -29v-673q0 -152 52.5 -211.5t173.5 -59.5q117 0 276 80v864q0 16 12.5 28.5t28.5 12.5h101q16 0 27 -12t11 -29v-1044q0 -16 -11 -28.5t-27 -12.5h-103q-16 0 -27.5 12.5t-11.5 28.5v39q-168 -94 -325 -94 q-357 0 -357 426zM309 1352v166q0 14 13.5 27.5t27.5 13.5h80q16 0 28.5 -13.5t12.5 -27.5v-166q0 -16 -12.5 -27.5t-28.5 -11.5h-80q-16 0 -28.5 11.5t-12.5 27.5zM668 1352v166q0 14 12 27.5t29 13.5h79q14 0 27.5 -13.5t13.5 -27.5v-166q0 -16 -12 -27.5t-29 -11.5h-79 q-16 0 -28.5 11.5t-12.5 27.5z" />
<glyph unicode="&#x152;" horiz-adv-x="2013" d="M123 629v264q0 326 150.5 484.5t404.5 158.5q268 0 412 -168q92 168 391 168q281 0 399 -18q20 -4 21 -29v-96q0 -25 -23 -25h-395q-156 0 -204 -45t-48 -168v-285h629q16 0 28.5 -12t12.5 -29v-77q0 -16 -12.5 -28.5t-28.5 -12.5h-629v-346q0 -123 48 -168t204 -45h395 q23 0 23 -25v-96q0 -25 -21 -29q-119 -18 -399 -18q-301 0 -391 170q-143 -168 -412 -168q-254 0 -404.5 158.5t-150.5 484.5zM311 629q0 -475 366.5 -475t366.5 473v274q0 467 -366.5 467t-366.5 -475v-264z" />
<glyph unicode="&#x153;" horiz-adv-x="1841" d="M102 485v156q0 231 117 365.5t338 134.5q248 0 367 -168q117 168 364 168q219 0 335 -128t116 -351v-111q0 -45 -39 -45h-686v-21q0 -170 61.5 -256t222.5 -86q217 0 365 23h10q33 0 33 -29v-69q0 -39 -41 -48q-180 -35 -367 -34q-262 0 -376 168q-119 -168 -365 -168 q-221 0 -338 134t-117 365zM283 485q0 -342 274 -342q139 0 208 89.5t69 252.5v156q0 342 -277 342q-274 0 -274 -342v-156zM1014 643h542v19q0 170 -65.5 245.5t-202.5 75.5q-274 0 -274 -321v-19z" />
<glyph unicode="&#x2013;" horiz-adv-x="870" d="M88 539v79q0 16 11.5 26.5t27.5 10.5h618q16 0 27.5 -10t11.5 -27v-79q0 -35 -39 -35h-618q-39 0 -39 35z" />
<glyph unicode="&#x2014;" horiz-adv-x="1138" d="M88 539v79q0 16 11.5 26.5t27.5 10.5h885q16 0 27.5 -10t11.5 -27v-79q0 -35 -39 -35h-885q-39 0 -39 35z" />
<glyph unicode="&#x2018;" horiz-adv-x="380" d="M59 1098q0 10 2 16l125 387q10 39 39 39h78q18 0 19 -20q0 -12 -3 -19l-75 -387q-8 -39 -41 -39h-121q-23 0 -23 23z" />
<glyph unicode="&#x2019;" horiz-adv-x="380" d="M59 1096q0 12 2 18l76 387q8 39 41 39h121q23 0 23 -22q0 -10 -3 -17l-124 -387q-10 -39 -39 -39h-78q-19 1 -19 21z" />
<glyph unicode="&#x201c;" horiz-adv-x="688" d="M59 1098q0 10 2 16l125 387q10 39 39 39h78q18 0 19 -20q0 -12 -3 -19l-75 -387q-8 -39 -41 -39h-121q-23 0 -23 23zM367 1098q0 10 2 16l125 387q10 39 38 39h78q18 0 19 -20q0 -12 -2 -19l-76 -387q-8 -39 -41 -39h-121q-22 0 -22 23z" />
<glyph unicode="&#x201d;" horiz-adv-x="688" d="M59 1096q0 12 2 18l76 387q8 39 41 39h121q23 0 23 -22q0 -10 -3 -17l-124 -387q-10 -39 -39 -39h-78q-19 1 -19 21zM367 1096q0 12 2 18l75 387q8 39 41 39h121q23 0 23 -22q0 -10 -2 -17l-125 -387q-10 -39 -39 -39h-78q-18 1 -18 21z" />
<glyph unicode="&#x2026;" horiz-adv-x="1314" d="M1008 43v190q0 16 11.5 27.5t27.5 11.5h98q16 0 27.5 -11t11.5 -28v-190q0 -16 -11 -28.5t-28 -12.5h-98q-16 0 -27.5 12.5t-11.5 28.5zM569 43v190q0 16 11.5 27.5t27.5 11.5h98q16 0 27.5 -11t11.5 -28v-190q0 -16 -11 -28.5t-28 -12.5h-98q-16 0 -27.5 12.5 t-11.5 28.5zM131 43v190q0 16 11.5 27.5t27.5 11.5h98q16 0 27.5 -11t11.5 -28v-190q0 -16 -11 -28.5t-28 -12.5h-98q-16 0 -27.5 12.5t-11.5 28.5z" />
<glyph unicode="&#x2039;" horiz-adv-x="724" d="M61 567q0 35 23 58l346 346q20 20 43 20h119q23 0 22 -18q0 -14 -12 -27l-364 -379l364 -379q12 -12 12 -26q0 -18 -22 -19h-119q-23 0 -43 21l-346 346q-23 22 -23 57z" />
<glyph unicode="&#x203a;" horiz-adv-x="724" d="M111 162q0 14 12 26l364 379l-364 379q-12 12 -12 27q0 18 22 18h119q23 0 43 -20l346 -346q23 -23 23 -58t-23 -57l-346 -346q-20 -20 -43 -21h-119q-22 1 -22 19z" />
<glyph unicode="&#x20ac;" d="M106 584v57q0 16 12.5 28.5t28.5 12.5h66v166h-66q-16 0 -28.5 12t-12.5 29v57q0 16 12.5 28.5t28.5 12.5h68q8 125 48 222.5t97.5 157.5t132 99t146.5 54.5t147 15.5q104 0 312 -33q33 -4 32 -26v-105q0 -23 -24 -22h-6q-221 18 -312 18q-154 0 -260 -90t-125 -291h594 q35 0 35 -33v-4l-2 -4l-14 -57q-10 -41 -41 -41h-576v-166h527q31 0 30 -31l-2 -4v-6l-14 -57q-10 -41 -41 -41h-498q16 -203 124 -296t263 -93q109 0 306 16h8q33 0 33 -33v-84q0 -33 -41 -41q-139 -27 -308 -26q-98 0 -188 27.5t-175 88t-141.5 174t-66.5 267.5h-68 q-16 0 -28.5 12.5t-12.5 28.5z" />
<glyph unicode="&#x2122;" horiz-adv-x="1617" d="M51 1440v51q0 31 33 31h530q12 0 23.5 -9.5t11.5 -21.5v-51q0 -29 -35 -29h-198v-690q0 -12 -9.5 -22.5t-23.5 -10.5h-66q-31 0 -30 33v690h-203q-33 0 -33 29zM723 709v759q0 37 31 39q199 20 372 21q225 0 314.5 -64.5t89.5 -263.5v-491q0 -20 -21 -21h-84 q-20 0 -20 21v491q0 129 -37 170t-178 41v-702q0 -20 -21 -21h-86q-20 0 -20 21v702q-102 0 -217 -12v-690q0 -20 -19 -21h-84q-20 1 -20 21z" />
<glyph unicode="&#xe000;" horiz-adv-x="1125" d="M0 1125h1125v-1125h-1125v1125z" />
<glyph unicode="&#xfb01;" horiz-adv-x="1286" d="M940 1348v163q0 16 12 28.5t29 12.5h104q16 0 28.5 -12t12.5 -29v-163q0 -16 -12 -28.5t-29 -12.5h-104q-16 0 -28.5 12.5t-12.5 28.5zM942 41v1044q0 16 12 28.5t29 12.5h98q16 0 28.5 -12t12.5 -29v-1044q0 -16 -12.5 -28.5t-28.5 -12.5h-98q-16 0 -28.5 12.5 t-12.5 28.5zM51 1034v56q0 16 11.5 26t27.5 10h199v148q0 158 71.5 221.5t214.5 63.5q61 0 115 -13q39 -10 39 -33v-67q0 -31 -37 -31h-98q-74 0 -99.5 -28.5t-25.5 -112.5v-148h215q16 0 27.5 -10t11.5 -26v-80q0 -35 -39 -35h-215v-934q0 -16 -12.5 -28.5t-26.5 -12.5 h-100q-16 0 -28.5 12.5t-12.5 28.5v934l-199 22q-39 4 -39 37z" />
<glyph unicode="&#xfb02;" horiz-adv-x="1280" d="M940 41v1460q0 39 37 39h106q16 0 26.5 -11t10.5 -28v-1460q0 -16 -10.5 -28.5t-26.5 -12.5h-106q-14 0 -25.5 12.5t-11.5 28.5zM51 1034v56q0 16 11.5 26t27.5 10h199v148q0 158 71.5 221.5t214.5 63.5q61 0 115 -13q39 -10 39 -33v-67q0 -31 -37 -31h-98 q-74 0 -99.5 -28.5t-25.5 -112.5v-148h215q16 0 27.5 -10t11.5 -26v-80q0 -35 -39 -35h-215v-934q0 -16 -12.5 -28.5t-26.5 -12.5h-100q-16 0 -28.5 12.5t-12.5 28.5v934l-199 22q-39 4 -39 37z" />
<glyph unicode="&#xfb03;" horiz-adv-x="2066" d="M1721 1348v163q0 16 12 28.5t29 12.5h104q16 0 28.5 -12t12.5 -29v-163q0 -16 -12 -28.5t-29 -12.5h-104q-16 0 -28.5 12.5t-12.5 28.5zM1723 41v1044q0 16 12 28.5t29 12.5h98q16 0 28.5 -12t12.5 -29v-1044q0 -16 -12.5 -28.5t-28.5 -12.5h-98q-16 0 -28.5 12.5 t-12.5 28.5zM831 1034v56q0 16 11.5 26t27.5 10h199v148q0 158 71.5 221.5t214.5 63.5q61 0 115 -13q39 -10 39 -33v-67q0 -31 -37 -31h-98q-74 0 -99.5 -28.5t-25.5 -112.5v-148h215q16 0 27.5 -10t11.5 -26v-80q0 -35 -39 -35h-215v-934q0 -16 -12.5 -28.5t-26.5 -12.5 h-100q-16 0 -28.5 12.5t-12.5 28.5v934l-199 22q-39 4 -39 37zM51 1034v56q0 16 11.5 26t27.5 10h199v148q0 158 71.5 221.5t214.5 63.5q61 0 115 -13q39 -10 39 -33v-67q0 -31 -37 -31h-98q-74 0 -99.5 -28.5t-25.5 -112.5v-148h215q16 0 27.5 -10t11.5 -26v-80 q0 -35 -39 -35h-215v-934q0 -16 -12.5 -28.5t-26.5 -12.5h-100q-16 0 -28.5 12.5t-12.5 28.5v934l-199 22q-39 4 -39 37z" />
<glyph unicode="&#xfb04;" horiz-adv-x="2060" d="M1721 41v1460q0 39 37 39h106q16 0 26.5 -11t10.5 -28v-1460q0 -16 -10.5 -28.5t-26.5 -12.5h-106q-14 0 -25.5 12.5t-11.5 28.5zM831 1034v56q0 16 11.5 26t27.5 10h199v148q0 158 71.5 221.5t214.5 63.5q61 0 115 -13q39 -10 39 -33v-67q0 -31 -37 -31h-98 q-74 0 -99.5 -28.5t-25.5 -112.5v-148h215q16 0 27.5 -10t11.5 -26v-80q0 -35 -39 -35h-215v-934q0 -16 -12.5 -28.5t-26.5 -12.5h-100q-16 0 -28.5 12.5t-12.5 28.5v934l-199 22q-39 4 -39 37zM51 1034v56q0 16 11.5 26t27.5 10h199v148q0 158 71.5 221.5t214.5 63.5 q61 0 115 -13q39 -10 39 -33v-67q0 -31 -37 -31h-98q-74 0 -99.5 -28.5t-25.5 -112.5v-148h215q16 0 27.5 -10t11.5 -26v-80q0 -35 -39 -35h-215v-934q0 -16 -12.5 -28.5t-26.5 -12.5h-100q-16 0 -28.5 12.5t-12.5 28.5v934l-199 22q-39 4 -39 37z" />
</font>
</defs>
</svg>
